<svg width="30" height="30" viewBox="0 0 30 30" fill="none" xmlns="http://www.w3.org/2000/svg">
<path d="M28.5 28.5H3.9C3.05992 28.5 2.63988 28.5 2.31901 28.3365C2.03677 28.1927 1.8073 27.9632 1.66349 27.681C1.5 27.3601 1.5 26.9401 1.5 26.1V1.5M28.5 19.5L20.3485 11.3485C20.0515 11.0515 19.903 10.903 19.7318 10.8474C19.5811 10.7984 19.4189 10.7984 19.2682 10.8474C19.097 10.903 18.9485 11.0515 18.6515 11.3485L15.8485 14.1515C15.5515 14.4485 15.403 14.597 15.2318 14.6526C15.0811 14.7016 14.9189 14.7016 14.7682 14.6526C14.597 14.597 14.4485 14.4485 14.1515 14.1515L7.5 7.5M28.5 19.5H22.5M28.5 19.5V13.5" stroke="url(#paint0_linear_280_211)" stroke-width="2" stroke-linecap="round" stroke-linejoin="round"/>
<defs>
<linearGradient id="paint0_linear_280_211" x1="15" y1="1.5" x2="15" y2="28.5" gradientUnits="userSpaceOnUse">
<stop stop-color="#38A5B6"/>
<stop offset="1" stop-color="#6854F7"/>
</linearGradient>
</defs>
</svg>
