<svg width="43" height="42" viewBox="0 0 43 42" fill="none" xmlns="http://www.w3.org/2000/svg">
<path fill-rule="evenodd" clip-rule="evenodd" d="M0.799805 21.0001C0.799805 32.4327 10.0672 41.7001 21.4998 41.7001C32.9324 41.7001 42.1998 32.4327 42.1998 21.0001C42.1998 9.5675 32.9324 0.30011 21.4998 0.30011C10.0672 0.30011 0.799805 9.5675 0.799805 21.0001ZM14.2548 29.2801V25.1401H25.6398C26.2114 25.1401 26.6748 24.6767 26.6748 24.1051C26.6748 23.5335 26.2114 23.0701 25.6398 23.0701L17.3598 23.0701C14.5017 23.0701 12.1848 20.7532 12.1848 17.8951C12.1848 15.037 14.5017 12.7201 17.3598 12.7201H19.4298V8.58011H23.5698V12.7201H28.7448V16.8601H17.3598C16.7882 16.8601 16.3248 17.3235 16.3248 17.8951C16.3248 18.4667 16.7882 18.9301 17.3598 18.9301H25.6398C28.4979 18.9301 30.8148 21.247 30.8148 24.1051C30.8148 26.9632 28.4979 29.2801 25.6398 29.2801H23.5698V33.4201H19.4298V29.2801H14.2548Z" fill="#2BD67B"/>
</svg>
