<svg width="32" height="40" viewBox="0 0 32 40" fill="none" xmlns="http://www.w3.org/2000/svg">
<path fill-rule="evenodd" clip-rule="evenodd" d="M1.38549 11.5335C-0.634684 17.9035 1.70334 24.8483 7.16463 28.6996H7.16272L3.1703 37.8248C3.04089 38.1213 3.06982 38.4631 3.24722 38.7337C3.42461 39.0042 3.72653 39.167 4.05005 39.1665H27.9509C28.2749 39.1673 28.5774 39.0042 28.7549 38.7331C28.9324 38.462 28.9609 38.1196 28.8306 37.8229L24.8382 28.6996C30.2995 24.8483 32.6375 17.9035 30.6174 11.5335C28.5972 5.16343 22.6841 0.835388 16.0014 0.835388C9.31873 0.835388 3.40567 5.16343 1.38549 11.5335ZM16.0006 23.8242C12.4853 23.8242 9.41994 21.4347 8.56206 18.0256L12.2804 17.0961C12.705 18.8052 14.2395 20.0052 16.0006 20.0052C17.7617 20.0052 19.2963 18.8052 19.7209 17.0961L23.4392 18.0256C22.5813 21.4347 19.516 23.8242 16.0006 23.8242Z" fill="#CB41F4"/>
</svg>
