<svg width="216" height="38" viewBox="0 0 216 38" fill="none" xmlns="http://www.w3.org/2000/svg">
<path d="M53.808 31.9868V6.78681H62.538C64.386 6.78681 65.964 7.06881 67.272 7.63282C68.592 8.19681 69.6 9.07881 70.296 10.2788C70.992 11.4788 71.34 13.0328 71.34 14.9408C71.34 16.8488 70.992 18.4148 70.296 19.6388C69.612 20.8508 68.616 21.7508 67.308 22.3388C66 22.9268 64.434 23.2208 62.61 23.2208H58.056V31.9868H53.808ZM58.056 19.6568H62.088C63.756 19.6568 65.004 19.2788 65.832 18.5228C66.672 17.7668 67.092 16.5908 67.092 14.9948C67.092 13.3988 66.678 12.2288 65.85 11.4848C65.022 10.7288 63.744 10.3508 62.016 10.3508H58.056V19.6568ZM74.0068 31.9868V14.1128H77.6428L77.8408 16.3988C78.4648 15.6668 79.1908 15.0428 80.0188 14.5268C80.8468 14.0108 81.7408 13.7528 82.7008 13.7528C82.9888 13.7528 83.2588 13.7828 83.5108 13.8428L83.1868 17.9288C82.9588 17.8688 82.7308 17.8328 82.5028 17.8208C82.2748 17.7968 82.0408 17.7848 81.8008 17.7848C80.9848 17.7848 80.2348 17.9708 79.5508 18.3428C78.8668 18.7148 78.3868 19.1468 78.1108 19.6388V31.9868H74.0068ZM85.7138 31.9868V14.1128H89.7278V31.9868H85.7138ZM85.7138 10.9448V6.78681H89.7278V10.9448H85.7138ZM102.273 32.3468C100.233 32.3468 98.5227 31.9328 97.1427 31.1048C95.7627 30.2648 94.7187 29.1488 94.0107 27.7568C93.3147 26.3528 92.9667 24.8048 92.9667 23.1128C92.9667 21.3848 93.3087 19.8128 93.9927 18.3968C94.6887 16.9808 95.7387 15.8528 97.1427 15.0128C98.5467 14.1728 100.317 13.7528 102.453 13.7528C103.437 13.7528 104.337 13.8608 105.153 14.0768C105.969 14.2808 106.677 14.5448 107.277 14.8688L106.863 18.1988C106.275 17.8988 105.627 17.6588 104.919 17.4788C104.211 17.2868 103.473 17.1908 102.705 17.1908C100.905 17.1908 99.5127 17.7248 98.5287 18.7928C97.5567 19.8488 97.0707 21.2708 97.0707 23.0588C97.0707 24.7748 97.5567 26.1908 98.5287 27.3068C99.5007 28.4228 100.875 28.9808 102.651 28.9808C103.407 28.9808 104.139 28.8788 104.847 28.6748C105.555 28.4708 106.239 28.1888 106.899 27.8288L107.313 31.1768C106.737 31.5008 105.999 31.7768 105.099 32.0048C104.211 32.2328 103.269 32.3468 102.273 32.3468ZM118.787 32.3468C116.651 32.3468 114.863 31.9148 113.423 31.0508C111.995 30.1868 110.915 29.0468 110.183 27.6308C109.463 26.2028 109.103 24.6368 109.103 22.9328C109.103 21.2888 109.439 19.7768 110.111 18.3968C110.795 17.0048 111.785 15.8948 113.081 15.0668C114.389 14.2268 115.973 13.8068 117.833 13.8068C119.465 13.8068 120.857 14.1368 122.009 14.7968C123.161 15.4568 124.037 16.3688 124.637 17.5328C125.249 18.6848 125.555 20.0048 125.555 21.4928C125.555 21.8288 125.531 22.1828 125.483 22.5548C125.447 22.9148 125.393 23.2868 125.321 23.6708H113.261C113.429 24.9788 113.795 26.0168 114.359 26.7848C114.923 27.5528 115.625 28.1108 116.465 28.4588C117.305 28.7948 118.211 28.9628 119.183 28.9628C120.143 28.9628 121.067 28.8488 121.955 28.6208C122.855 28.3808 123.689 28.0568 124.457 27.6488L124.763 30.9788C124.079 31.3148 123.233 31.6268 122.225 31.9148C121.217 32.2028 120.071 32.3468 118.787 32.3468ZM113.441 20.9348H121.451C121.451 20.2868 121.325 19.6808 121.073 19.1168C120.833 18.5408 120.443 18.0788 119.903 17.7308C119.375 17.3708 118.679 17.1908 117.815 17.1908C116.555 17.1908 115.571 17.5328 114.863 18.2168C114.167 18.9008 113.693 19.8068 113.441 20.9348ZM128.796 31.9868V6.78681H137.634C139.374 6.78681 140.898 7.06281 142.206 7.61481C143.514 8.15482 144.528 8.98882 145.248 10.1168C145.968 11.2448 146.328 12.6848 146.328 14.4368C146.328 16.2368 145.938 17.6948 145.158 18.8108C144.39 19.9268 143.34 20.8088 142.008 21.4568L147.678 31.9868H142.89L137.922 22.4648C137.886 22.4648 137.856 22.4648 137.832 22.4648C137.808 22.4648 137.778 22.4648 137.742 22.4648H133.044V31.9868H128.796ZM133.044 18.9008H136.842C138.678 18.9008 139.986 18.5048 140.766 17.7128C141.558 16.9088 141.954 15.8708 141.954 14.5988C141.954 13.2548 141.564 12.2108 140.784 11.4668C140.004 10.7228 138.726 10.3508 136.95 10.3508H133.044V18.9008ZM154.133 32.3468C153.125 32.3468 152.219 32.1308 151.415 31.6988C150.611 31.2668 149.975 30.6548 149.507 29.8628C149.051 29.0708 148.823 28.1348 148.823 27.0548C148.823 26.0468 149.051 25.1828 149.507 24.4628C149.975 23.7308 150.587 23.1248 151.343 22.6448C152.111 22.1648 152.945 21.7868 153.845 21.5108C154.757 21.2228 155.669 21.0128 156.581 20.8808C157.505 20.7488 158.345 20.6768 159.101 20.6648C159.065 19.3928 158.771 18.5168 158.219 18.0368C157.679 17.5448 156.821 17.2988 155.645 17.2988C154.889 17.2988 154.133 17.4068 153.377 17.6228C152.621 17.8388 151.763 18.2168 150.803 18.7568L150.389 15.4808C151.337 14.9528 152.345 14.5448 153.413 14.2568C154.493 13.9568 155.597 13.8068 156.725 13.8068C158.129 13.8068 159.305 14.0528 160.253 14.5448C161.201 15.0368 161.915 15.8468 162.395 16.9748C162.887 18.1028 163.133 19.6088 163.133 21.4928V25.8848C163.133 26.7608 163.175 27.4268 163.259 27.8828C163.343 28.3388 163.505 28.6508 163.745 28.8188C163.997 28.9868 164.375 29.0708 164.879 29.0708H165.365L164.933 32.3468H163.817C163.001 32.3468 162.323 32.2508 161.783 32.0588C161.243 31.8788 160.799 31.6208 160.451 31.2848C160.115 30.9488 159.827 30.5468 159.587 30.0788C158.975 30.7748 158.183 31.3268 157.211 31.7348C156.251 32.1428 155.225 32.3468 154.133 32.3468ZM155.537 29.2328C156.101 29.2328 156.719 29.0888 157.391 28.8008C158.063 28.5008 158.639 28.0808 159.119 27.5408V23.4008C157.967 23.4368 156.929 23.5868 156.005 23.8508C155.081 24.1028 154.349 24.4808 153.809 24.9848C153.281 25.4768 153.017 26.1068 153.017 26.8748C153.017 27.6788 153.227 28.2728 153.647 28.6568C154.079 29.0408 154.709 29.2328 155.537 29.2328ZM175.003 32.3468C173.299 32.3468 171.829 31.9268 170.593 31.0868C169.369 30.2468 168.427 29.1248 167.767 27.7208C167.107 26.3168 166.777 24.7748 166.777 23.0948C166.777 21.4268 167.095 19.8908 167.731 18.4868C168.367 17.0708 169.297 15.9368 170.521 15.0848C171.757 14.2328 173.251 13.8068 175.003 13.8068C176.275 13.8068 177.397 14.0408 178.369 14.5088C179.353 14.9648 180.193 15.6248 180.889 16.4888L179.953 17.2628V4.98681H183.967V31.9868H180.241L179.881 28.6748L181.015 29.4848C180.283 30.3968 179.431 31.1048 178.459 31.6088C177.487 32.1008 176.335 32.3468 175.003 32.3468ZM175.633 28.9628C176.557 28.9628 177.361 28.7348 178.045 28.2788C178.729 27.8228 179.263 27.1568 179.647 26.2808C180.031 25.4048 180.223 24.3428 180.223 23.0948C180.223 21.8708 180.031 20.8208 179.647 19.9448C179.263 19.0568 178.729 18.3788 178.045 17.9108C177.361 17.4308 176.557 17.1908 175.633 17.1908C174.637 17.1908 173.785 17.4428 173.077 17.9468C172.369 18.4508 171.823 19.1468 171.439 20.0348C171.067 20.9228 170.881 21.9428 170.881 23.0948C170.881 24.2108 171.067 25.2128 171.439 26.1008C171.823 26.9888 172.369 27.6908 173.077 28.2068C173.785 28.7108 174.637 28.9628 175.633 28.9628ZM192.172 32.3468C191.164 32.3468 190.258 32.1308 189.454 31.6988C188.65 31.2668 188.014 30.6548 187.546 29.8628C187.09 29.0708 186.862 28.1348 186.862 27.0548C186.862 26.0468 187.09 25.1828 187.546 24.4628C188.014 23.7308 188.626 23.1248 189.382 22.6448C190.15 22.1648 190.984 21.7868 191.884 21.5108C192.796 21.2228 193.708 21.0128 194.62 20.8808C195.544 20.7488 196.384 20.6768 197.14 20.6648C197.104 19.3928 196.81 18.5168 196.258 18.0368C195.718 17.5448 194.86 17.2988 193.684 17.2988C192.928 17.2988 192.172 17.4068 191.416 17.6228C190.66 17.8388 189.802 18.2168 188.842 18.7568L188.428 15.4808C189.376 14.9528 190.384 14.5448 191.452 14.2568C192.532 13.9568 193.636 13.8068 194.764 13.8068C196.168 13.8068 197.344 14.0528 198.292 14.5448C199.24 15.0368 199.954 15.8468 200.434 16.9748C200.926 18.1028 201.172 19.6088 201.172 21.4928V25.8848C201.172 26.7608 201.214 27.4268 201.298 27.8828C201.382 28.3388 201.544 28.6508 201.784 28.8188C202.036 28.9868 202.414 29.0708 202.918 29.0708H203.404L202.972 32.3468H201.856C201.04 32.3468 200.362 32.2508 199.822 32.0588C199.282 31.8788 198.838 31.6208 198.49 31.2848C198.154 30.9488 197.866 30.5468 197.626 30.0788C197.014 30.7748 196.222 31.3268 195.25 31.7348C194.29 32.1428 193.264 32.3468 192.172 32.3468ZM193.576 29.2328C194.14 29.2328 194.758 29.0888 195.43 28.8008C196.102 28.5008 196.678 28.0808 197.158 27.5408V23.4008C196.006 23.4368 194.968 23.5868 194.044 23.8508C193.12 24.1028 192.388 24.4808 191.848 24.9848C191.32 25.4768 191.056 26.1068 191.056 26.8748C191.056 27.6788 191.266 28.2728 191.686 28.6568C192.118 29.0408 192.748 29.2328 193.576 29.2328ZM205.878 31.9868V14.1128H209.514L209.712 16.3988C210.336 15.6668 211.062 15.0428 211.89 14.5268C212.718 14.0108 213.612 13.7528 214.572 13.7528C214.86 13.7528 215.13 13.7828 215.382 13.8428L215.058 17.9288C214.83 17.8688 214.602 17.8328 214.374 17.8208C214.146 17.7968 213.912 17.7848 213.672 17.7848C212.856 17.7848 212.106 17.9708 211.422 18.3428C210.738 18.7148 210.258 19.1468 209.982 19.6388V31.9868H205.878Z" fill="white"/>
<circle cx="4.86842" cy="32.1448" r="4.86842" fill="url(#paint0_linear_247_342)"/>
<path d="M34.079 32.1448C34.079 16.55 21.4369 3.90796 5.84213 3.90796" stroke="url(#paint1_linear_247_342)" stroke-width="5.8421" stroke-linecap="round"/>
<path d="M21.4212 33.1184C21.4212 23.4388 13.5744 15.592 3.89488 15.592" stroke="url(#paint2_linear_247_342)" stroke-width="5.8421" stroke-linecap="round"/>
<defs>
<linearGradient id="paint0_linear_247_342" x1="4.86842" y1="27.2764" x2="4.86842" y2="37.0132" gradientUnits="userSpaceOnUse">
<stop stop-color="#38A5B6"/>
<stop offset="1" stop-color="#6854F7"/>
</linearGradient>
<linearGradient id="paint1_linear_247_342" x1="19.9606" y1="3.90796" x2="19.9606" y2="32.1448" gradientUnits="userSpaceOnUse">
<stop stop-color="#38A5B6"/>
<stop offset="1" stop-color="#6854F7"/>
</linearGradient>
<linearGradient id="paint2_linear_247_342" x1="12.658" y1="15.592" x2="12.658" y2="33.1184" gradientUnits="userSpaceOnUse">
<stop stop-color="#38A5B6"/>
<stop offset="1" stop-color="#6854F7"/>
</linearGradient>
</defs>
</svg>
