<svg width="40" height="40" viewBox="0 0 40 40" fill="none" xmlns="http://www.w3.org/2000/svg">
<path fill-rule="evenodd" clip-rule="evenodd" d="M19.9997 39.1664C9.41393 39.1664 0.833008 30.5855 0.833008 19.9997C0.833008 9.41398 9.41393 0.833069 19.9997 0.833069C30.5854 0.833069 39.1663 9.41399 39.1663 19.9997C39.1663 30.5855 30.5854 39.1664 19.9997 39.1664ZM32.1798 27.5744V27.3732C32.1798 25.606 32.1798 24.7991 30.9302 24.0842C30.5285 23.8564 30.1159 23.6486 29.6939 23.4612L29.684 23.4567C28.9861 23.1392 28.5218 22.9279 27.8961 22.0122C27.821 21.903 27.7469 21.7931 27.6737 21.6826C27.0125 20.6763 26.5352 19.9518 24.7182 20.2393C21.1437 20.8067 20.8792 21.4353 20.722 22.4972L20.6971 22.6716C20.4652 24.2241 20.423 24.7454 21.0708 25.4258C23.4954 27.9692 24.9482 29.8035 25.3891 30.8768C25.6037 31.4001 26.1557 32.9852 25.7762 34.553C28.1027 33.6263 30.1736 32.1561 31.8157 30.2654C32.0265 29.5486 32.1798 28.6554 32.1798 27.5744ZM8.69878 9.16865C11.5469 6.19781 15.5585 4.34631 19.9994 4.34631C22.1883 4.34403 24.3531 4.80246 26.3532 5.69181C25.2914 6.40481 23.5779 7.56056 23.0182 8.32723C22.9554 8.41323 22.8863 8.58513 22.8004 8.79835C22.5325 9.46427 22.1023 10.5332 21.1993 10.6464C20.8935 10.6856 20.4897 10.6594 20.0586 10.6315L20.0224 10.6291L20.0208 10.629C18.8288 10.5524 17.2009 10.4477 16.6798 11.8635C16.3482 12.7624 16.2888 15.1966 17.3621 16.4616C17.5327 16.6647 17.5672 17.0366 17.4484 17.4582C17.2969 18.0083 16.9884 18.3437 16.8925 18.4127C16.7066 18.3054 16.3367 17.878 16.0875 17.5886C15.4876 16.889 14.7363 16.0169 13.7664 15.7486C13.4408 15.6583 13.0857 15.5827 12.7359 15.5083C12.7069 15.5021 12.6779 15.496 12.649 15.4898C11.5968 15.2713 10.4046 15.0183 10.1286 14.428C9.92736 13.9967 9.92736 13.3987 9.92736 12.7701C9.92736 11.9708 9.92736 11.0681 9.53636 10.1921C9.3332 9.73598 9.03803 9.4044 8.69878 9.16865Z" fill="#416FF4"/>
</svg>
