<svg width="32" height="32" viewBox="0 0 32 32" fill="none" xmlns="http://www.w3.org/2000/svg">
<path d="M16 20.5L11.5 16M16 20.5C18.0953 19.7031 20.1053 18.6981 22 17.5M16 20.5V28C16 28 20.545 27.175 22 25C23.62 22.57 22 17.5 22 17.5M11.5 16C12.2982 13.9292 13.3033 11.9441 14.5 10.075C16.2478 7.28049 18.6814 4.97958 21.5695 3.39114C24.4576 1.80271 27.704 0.979562 31 1.00001C31 5.08001 29.83 12.25 22 17.5M11.5 16H4C4 16 4.825 11.455 7 10C9.43 8.38001 14.5 10 14.5 10M4.75 22.75C2.5 24.64 1.75 30.25 1.75 30.25C1.75 30.25 7.36 29.5 9.25 27.25C10.315 25.99 10.3 24.055 9.115 22.885C8.53196 22.3285 7.76394 22.007 6.95834 21.982C6.15274 21.9571 5.36631 22.2306 4.75 22.75Z" stroke="url(#paint0_linear_280_389)" stroke-width="2" stroke-linecap="round" stroke-linejoin="round"/>
<defs>
<linearGradient id="paint0_linear_280_389" x1="16.375" y1="0.999634" x2="16.375" y2="30.25" gradientUnits="userSpaceOnUse">
<stop stop-color="#38A5B6"/>
<stop offset="1" stop-color="#6854F7"/>
</linearGradient>
</defs>
</svg>
