<svg width="46" height="46" viewBox="0 0 46 46" fill="none" xmlns="http://www.w3.org/2000/svg">
<g clip-path="url(#clip0_308_3388)">
<path d="M44.691 19.4181L39.657 18.5025C39.2707 17.0677 38.7011 15.6931 37.9572 14.403L40.8708 10.1947C41.0685 9.90899 41.0334 9.52356 40.7882 9.27739L36.7227 5.21196C36.4766 4.96668 36.0911 4.93165 35.8054 5.1293L31.5971 8.04293C30.307 7.29903 28.9324 6.72942 27.4976 6.34309L26.5821 1.30915C26.5201 0.966841 26.2227 0.718872 25.875 0.718872H20.125C19.7773 0.718872 19.4799 0.966841 19.4179 1.30915L18.5024 6.34309C17.0676 6.72942 15.693 7.29903 14.4029 8.04293L10.1946 5.1293C9.90887 4.93165 9.52344 4.96668 9.27727 5.21196L5.21184 9.27739C4.96656 9.52356 4.93152 9.90899 5.12918 10.1947L8.04281 14.403C7.29891 15.6931 6.7293 17.0677 6.34297 18.5025L1.30902 19.4181C0.966719 19.48 0.71875 19.7774 0.71875 20.1251V25.8751C0.71875 26.2228 0.966719 26.5202 1.30902 26.5822L6.34297 27.4977C6.7293 28.9325 7.29891 30.3071 8.04281 31.5973L5.12918 35.8056C4.93152 36.0913 4.96656 36.4767 5.21184 36.7229L9.27727 40.7883C9.52344 41.0336 9.90887 41.0686 10.1946 40.8709L14.4029 37.9573C15.693 38.7012 17.0676 39.2708 18.5024 39.6572L19.4179 44.6911C19.4799 45.0334 19.7773 45.2814 20.125 45.2814H25.875C26.2227 45.2814 26.5201 45.0334 26.5821 44.6911L27.4976 39.6572C28.9324 39.2708 30.307 38.7012 31.5971 37.9573L35.8054 40.8709C36.0911 41.0686 36.4766 41.0336 36.7227 40.7883L40.7882 36.7229C41.0334 36.4767 41.0685 36.0913 40.8708 35.8056L37.9572 31.5973C38.7011 30.3071 39.2707 28.9325 39.657 27.4977L44.691 26.5822C45.0333 26.5202 45.2812 26.2228 45.2812 25.8751V20.1251C45.2812 19.7774 45.0333 19.48 44.691 19.4181ZM23 33.7742C17.0586 33.7742 12.2259 28.9415 12.2259 23.0001C12.2259 17.0588 17.0586 12.2261 23 12.2261C28.9414 12.2261 33.7741 17.0588 33.7741 23.0001C33.7741 28.9415 28.9414 33.7742 23 33.7742Z" fill="#FFB800"/>
</g>
<defs>
<clipPath id="clip0_308_3388">
<rect width="46" height="46" fill="white"/>
</clipPath>
</defs>
</svg>
