<svg width="40" height="46" viewBox="0 0 40 46" fill="none" xmlns="http://www.w3.org/2000/svg">
<path d="M39.3082 11.8405C39.2531 10.6303 39.2531 9.47516 39.2531 8.32C39.2531 7.38488 38.5381 6.66978 37.6029 6.66978C30.727 6.66978 25.5013 4.68951 21.1557 0.453934C20.4956 -0.151148 19.5055 -0.151148 18.8454 0.453934C14.4998 4.68951 9.27407 6.66978 2.39814 6.66978C1.46301 6.66978 0.747915 7.38488 0.747915 8.32C0.747915 9.47516 0.747915 10.6303 0.692908 11.8405C0.472878 23.392 0.142832 39.2342 19.4505 45.8901L20.0005 46.0001L20.5506 45.8901C39.8032 39.2342 39.5282 23.4471 39.3082 11.8405ZM18.6804 27.8477C18.3503 28.1227 17.9653 28.2877 17.5252 28.2877H17.4702C17.0301 28.2877 16.5901 28.0677 16.315 27.7376L11.1993 22.0719L13.6747 19.8716L17.6902 24.3272L26.6014 15.856L28.8567 18.2764L18.6804 27.8477Z" fill="#38A5B6"/>
</svg>
